<svg width="107" height="35" viewBox="0 0 107 35" fill="none" xmlns="http://www.w3.org/2000/svg">
<path d="M35.4733 24.12C35.1053 24.12 34.8093 24.008 34.5853 23.784C34.3613 23.56 34.2493 23.256 34.2493 22.872V8.28C34.2493 7.912 34.3533 7.624 34.5613 7.416C34.7853 7.192 35.0893 7.08 35.4733 7.08H41.2573C43.0493 7.08 44.4413 7.52 45.4333 8.4C46.4253 9.28 46.9213 10.528 46.9213 12.144C46.9213 13.744 46.4253 14.992 45.4333 15.888C44.4413 16.784 43.0493 17.232 41.2573 17.232H36.7213V22.872C36.7213 23.256 36.6093 23.56 36.3853 23.784C36.1773 24.008 35.8733 24.12 35.4733 24.12ZM40.9933 15.24C43.3613 15.24 44.5453 14.208 44.5453 12.144C44.5453 10.096 43.3613 9.072 40.9933 9.072H36.7213V15.24H40.9933ZM58.3871 21.048C58.6111 21.048 58.7951 21.136 58.9391 21.312C59.0831 21.488 59.1551 21.712 59.1551 21.984C59.1551 22.448 58.8671 22.84 58.2911 23.16C57.7311 23.48 57.1151 23.728 56.4431 23.904C55.7871 24.08 55.1551 24.168 54.5471 24.168C52.6911 24.168 51.2271 23.632 50.1551 22.56C49.0831 21.472 48.5471 19.992 48.5471 18.12C48.5471 16.92 48.7791 15.856 49.2431 14.928C49.7231 14 50.3871 13.28 51.2351 12.768C52.0991 12.256 53.0751 12 54.1631 12C55.7311 12 56.9711 12.504 57.8831 13.512C58.7951 14.52 59.2511 15.88 59.2511 17.592C59.2511 18.232 58.9631 18.552 58.3871 18.552H50.9711C51.1311 21.032 52.3231 22.272 54.5471 22.272C55.1391 22.272 55.6511 22.192 56.0831 22.032C56.5151 21.872 56.9711 21.664 57.4511 21.408C57.4991 21.376 57.6271 21.312 57.8351 21.216C58.0591 21.104 58.2431 21.048 58.3871 21.048ZM54.2111 13.776C53.2831 13.776 52.5391 14.072 51.9791 14.664C51.4191 15.256 51.0831 16.088 50.9711 17.16H57.1631C57.1151 16.072 56.8351 15.24 56.3231 14.664C55.8271 14.072 55.1231 13.776 54.2111 13.776ZM63.1462 24.12C62.7942 24.12 62.4982 24.024 62.2582 23.832C62.0342 23.64 61.9222 23.352 61.9222 22.968V8.136C61.9222 7.752 62.0342 7.464 62.2582 7.272C62.4982 7.064 62.7942 6.96 63.1462 6.96C63.4982 6.96 63.7862 7.064 64.0102 7.272C64.2342 7.464 64.3462 7.752 64.3462 8.136V22.968C64.3462 23.352 64.2342 23.64 64.0102 23.832C63.7862 24.024 63.4982 24.12 63.1462 24.12ZM72.6547 12C74.2067 12 75.3587 12.392 76.1107 13.176C76.8787 13.96 77.2627 15.152 77.2627 16.752V22.968C77.2627 23.336 77.1587 23.624 76.9507 23.832C76.7427 24.024 76.4547 24.12 76.0867 24.12C75.7347 24.12 75.4547 24.016 75.2467 23.808C75.0387 23.6 74.9347 23.32 74.9347 22.968V22.08C74.6307 22.752 74.1747 23.272 73.5667 23.64C72.9747 23.992 72.2787 24.168 71.4787 24.168C70.7107 24.168 70.0067 24.016 69.3667 23.712C68.7427 23.392 68.2467 22.96 67.8787 22.416C67.5107 21.872 67.3267 21.256 67.3267 20.568C67.3107 19.704 67.5267 19.032 67.9747 18.552C68.4227 18.056 69.1507 17.704 70.1587 17.496C71.1667 17.272 72.5667 17.16 74.3587 17.16H74.9107V16.464C74.9107 15.568 74.7267 14.92 74.3587 14.52C73.9907 14.12 73.3987 13.92 72.5827 13.92C72.0227 13.92 71.4947 13.992 70.9987 14.136C70.5027 14.28 69.9587 14.488 69.3667 14.76C68.9347 15 68.6307 15.12 68.4547 15.12C68.2147 15.12 68.0147 15.032 67.8547 14.856C67.7107 14.68 67.6387 14.456 67.6387 14.184C67.6387 13.944 67.7027 13.736 67.8307 13.56C67.9747 13.368 68.1987 13.184 68.5027 13.008C69.0627 12.704 69.7187 12.464 70.4707 12.288C71.2227 12.096 71.9507 12 72.6547 12ZM71.9107 22.368C72.7907 22.368 73.5107 22.072 74.0707 21.48C74.6307 20.872 74.9107 20.096 74.9107 19.152V18.528H74.4787C73.2307 18.528 72.2707 18.584 71.5987 18.696C70.9267 18.808 70.4467 19 70.1587 19.272C69.8707 19.528 69.7267 19.904 69.7267 20.4C69.7267 20.976 69.9347 21.448 70.3507 21.816C70.7667 22.184 71.2867 22.368 71.9107 22.368ZM90.2744 12.048C90.6424 12.048 90.9304 12.16 91.1384 12.384C91.3624 12.592 91.4744 12.872 91.4744 13.224V23.064C91.4744 24.856 90.9944 26.208 90.0344 27.12C89.0904 28.032 87.6904 28.488 85.8344 28.488C84.1064 28.488 82.6664 28.16 81.5144 27.504C80.9224 27.168 80.6264 26.768 80.6264 26.304C80.6264 26.032 80.6984 25.808 80.8424 25.632C81.0024 25.456 81.1944 25.368 81.4184 25.368C81.6264 25.368 81.9544 25.488 82.4024 25.728C82.9784 26 83.5144 26.208 84.0104 26.352C84.5064 26.512 85.0984 26.592 85.7864 26.592C87.9944 26.592 89.0984 25.48 89.0984 23.256V21.408C88.7624 22.112 88.2504 22.664 87.5624 23.064C86.8744 23.448 86.0744 23.64 85.1624 23.64C84.1384 23.64 83.2264 23.4 82.4264 22.92C81.6264 22.44 81.0024 21.76 80.5544 20.88C80.1224 20 79.9064 18.984 79.9064 17.832C79.9064 16.68 80.1304 15.664 80.5784 14.784C81.0264 13.904 81.6424 13.224 82.4264 12.744C83.2264 12.248 84.1384 12 85.1624 12C86.0584 12 86.8424 12.192 87.5144 12.576C88.2024 12.96 88.7224 13.504 89.0744 14.208V13.2C89.0744 12.848 89.1784 12.568 89.3864 12.36C89.6104 12.152 89.9064 12.048 90.2744 12.048ZM85.7384 21.72C86.7784 21.72 87.5944 21.376 88.1864 20.688C88.7784 20 89.0744 19.048 89.0744 17.832C89.0744 16.632 88.7784 15.688 88.1864 15C87.6104 14.296 86.7944 13.944 85.7384 13.944C84.6824 13.944 83.8504 14.288 83.2424 14.976C82.6504 15.664 82.3544 16.616 82.3544 17.832C82.3544 19.048 82.6584 20 83.2664 20.688C83.8744 21.376 84.6984 21.72 85.7384 21.72ZM99.9399 24.168C98.7879 24.168 97.7719 23.92 96.8919 23.424C96.0279 22.928 95.3559 22.224 94.8759 21.312C94.4119 20.384 94.1799 19.312 94.1799 18.096C94.1799 16.864 94.4119 15.792 94.8759 14.88C95.3559 13.952 96.0279 13.24 96.8919 12.744C97.7719 12.248 98.7879 12 99.9399 12C101.092 12 102.1 12.248 102.964 12.744C103.844 13.24 104.516 13.952 104.98 14.88C105.46 15.792 105.7 16.864 105.7 18.096C105.7 19.312 105.46 20.384 104.98 21.312C104.516 22.224 103.844 22.928 102.964 23.424C102.1 23.92 101.092 24.168 99.9399 24.168ZM99.9399 22.248C101.012 22.248 101.828 21.896 102.388 21.192C102.964 20.488 103.252 19.456 103.252 18.096C103.252 16.752 102.964 15.728 102.388 15.024C101.812 14.304 100.996 13.944 99.9399 13.944C98.8839 13.944 98.0679 14.304 97.4919 15.024C96.9159 15.728 96.6279 16.752 96.6279 18.096C96.6279 19.456 96.9079 20.488 97.4679 21.192C98.0439 21.896 98.8679 22.248 99.9399 22.248Z" fill="black"/>
<rect x="1.86366" y="6.54516" width="12.988" height="24.0801" rx="2.5" transform="rotate(-16.4664 1.86366 6.54516)" stroke="#BB0E45" stroke-width="3"/>
<rect x="11.5981" y="7.07689" width="13.8498" height="23.5026" rx="2.5" transform="rotate(13.6774 11.5981 7.07689)" fill="white" stroke="#2E294E" stroke-width="3"/>
</svg>
